<?xml version="1.0" encoding="UTF-8" standalone="no"?>
<svg
   width="88"
   height="31"
   version="1.1"
   id="svg11"
   xmlns="http://www.w3.org/2000/svg"
   xmlns:svg="http://www.w3.org/2000/svg"
   xmlns:rdf="http://www.w3.org/1999/02/22-rdf-syntax-ns#"
   xmlns:cc="http://creativecommons.org/ns#"
   xmlns:dc="http://purl.org/dc/elements/1.1/">
  <defs
     id="defs11" />
  <!-- 
        "Enhanced with SMIL :D" button - hand coded by duducat - https://ducdat0507.github.io
        Feel free to use or alter, though it will be appreciated if you keep this comment block intact.
    -->
  <title
     id="title1">Enhanced with SMIL :D</title>
  <style
     id="style1">
        .powered-text {
            font: 8px normal;
            font-family: &quot;Arial&quot;, &quot;FreeSans&quot;, sans-serif;
            fill: black;
            stroke: #bebebe;
            stroke-width: 2px;
            paint-order: stroke;
        }
        .smil-text {
            font-style: italic;
            font-weight: bold;
            font-size: 16px;
            font-family: &quot;Arial&quot;, &quot;FreeSans&quot;, sans-serif;
            stroke: black;
            stroke-width: 2; 
            paint-order: stroke;
        }
    </style>
  <!-- Background -->
  <rect
     width="88"
     height="31"
     fill="#bebebe"
     id="rect1" />
  <!-- Smiley -->
  <g
     id="g3">
    <circle
       r="20"
       cx="70"
       cy="15"
       fill="yellow"
       stroke="black"
       stroke-width="2"
       id="circle1" />
    <circle
       r="2"
       cx="76"
       cy="9"
       fill="yellow"
       stroke="black"
       stroke-width="2"
       id="circle2" />
    <circle
       r="2"
       cx="64"
       cy="9"
       fill="yellow"
       stroke="black"
       stroke-width="2"
       id="circle3" />
    <path
       d="M 60 20 a 12 12 180 0 0 20 0"
       fill="#0000"
       stroke="black"
       stroke-width="2"
       stroke-linecap="round"
       id="path3" />
    <animateTransform
       attributeName="transform"
       type="rotate"
       from="0 70 15"
       to="360 70 15"
       begin="0s"
       dur="5s"
       repeatCount="indefinite" />
  </g>
  <!-- Text -->
  <path
     d="M 8.3671875,8.6640625 9.09375,8.7539063 Q 8.921875,9.390625 8.4570313,9.7421875 7.9921875,10.09375 7.2695312,10.09375 q -0.9101562,0 -1.4453125,-0.5585937 -0.53125,-0.5625 -0.53125,-1.5742188 0,-1.046875 0.5390625,-1.625 0.5390625,-0.578125 1.3984375,-0.578125 0.8320313,0 1.3593751,0.5664062 0.5273437,0.5664063 0.5273437,1.59375 0,0.0625 -0.00391,0.1875001 H 6.0195312 Q 6.0585937,8.7890625 6.40625,9.1523438 6.7539062,9.515625 7.2734375,9.515625 7.6601562,9.515625 7.9335937,9.3125 8.2070313,9.109375 8.3671875,8.6640625 Z M 6.0585937,7.5273437 H 8.375 Q 8.328125,7.0039062 8.109375,6.7421875 q -0.3359375,-0.40625 -0.8710938,-0.40625 -0.484375,0 -0.8164062,0.3242187 Q 6.09375,6.984375 6.0585937,7.5273437 Z M 9.9765625,10 V 5.8515625 h 0.6328125 v 0.5898437 q 0.457031,-0.6835937 1.320313,-0.6835937 0.375,0 0.6875,0.1367187 0.316406,0.1328125 0.472656,0.3515625 0.15625,0.21875 0.21875,0.5195313 0.03906,0.1953125 0.03906,0.6835937 V 10 H 12.644531 V 7.4765625 q 0,-0.4296875 -0.08203,-0.640625 Q 12.480469,6.6210937 12.269531,6.4960937 12.0625,6.3671875 11.78125,6.3671875 q -0.449219,0 -0.777344,0.2851562 Q 10.679688,6.9375 10.679688,7.734375 V 10 Z m 4.4492185,0 V 4.2734375 h 0.703125 V 6.328125 q 0.492188,-0.5703125 1.242188,-0.5703125 0.460937,0 0.800781,0.1835937 0.339844,0.1796875 0.484375,0.5 0.148437,0.3203125 0.148437,0.9296875 V 10 H 17.101562 V 7.3710937 q 0,-0.5273437 -0.230468,-0.765625 -0.226563,-0.2421875 -0.644532,-0.2421875 -0.312499,0 -0.589843,0.1640625 -0.273438,0.1601563 -0.390625,0.4375 -0.117188,0.2773438 -0.117188,0.765625 V 10 Z m 7.15625,-0.5117187 q -0.390625,0.3320312 -0.753906,0.46875 -0.359375,0.1367187 -0.773438,0.1367187 -0.683593,0 -1.050781,-0.3320312 -0.367187,-0.3359375 -0.367187,-0.8554688 0,-0.3046875 0.136718,-0.5546875 0.140625,-0.2539062 0.363282,-0.40625 0.226562,-0.1523438 0.507812,-0.2304688 0.207031,-0.054687 0.625,-0.1054687 0.851563,-0.1015625 1.253906,-0.2421875 0.0039,-0.1445313 0.0039,-0.1835938 0,-0.4296875 -0.199219,-0.6054687 -0.269531,-0.2382813 -0.800781,-0.2382813 -0.496094,0 -0.734375,0.1757813 -0.234375,0.171875 -0.347657,0.6132812 l -0.6875,-0.09375 Q 18.851562,6.59375 19.066406,6.3242187 19.28125,6.0507812 19.6875,5.90625 q 0.40625,-0.1484375 0.941406,-0.1484375 0.53125,0 0.863281,0.125 0.332032,0.125 0.488282,0.3164062 0.15625,0.1875 0.21875,0.4765625 0.03516,0.1796875 0.03516,0.6484375 v 0.9375001 q 0,0.9804687 0.04297,1.2421875 Q 22.324219,9.7617188 22.457031,10 H 21.722656 Q 21.613281,9.78125 21.582031,9.4882813 Z M 21.523437,7.9179687 Q 21.140625,8.0742188 20.375,8.1835938 q -0.433594,0.0625 -0.613281,0.140625 -0.179688,0.078125 -0.277344,0.2304687 -0.09766,0.1484375 -0.09766,0.3320313 0,0.28125 0.210937,0.46875 0.214844,0.1875 0.625,0.1875 0.40625,0 0.722656,-0.1757813 Q 21.261719,9.1875 21.410156,8.8789063 21.523437,8.640625 21.523437,8.1757813 Z M 23.324219,10 V 5.8515625 h 0.632812 v 0.5898437 q 0.457031,-0.6835937 1.320313,-0.6835937 0.375,0 0.6875,0.1367187 0.316406,0.1328125 0.472656,0.3515625 0.15625,0.21875 0.21875,0.5195313 0.03906,0.1953125 0.03906,0.6835937 V 10 H 25.992187 V 7.4765625 q 0,-0.4296875 -0.08203,-0.640625 -0.08203,-0.2148438 -0.292969,-0.3398438 -0.207031,-0.1289062 -0.488281,-0.1289062 -0.449219,0 -0.777344,0.2851562 Q 24.027344,6.9375 24.027344,7.734375 V 10 Z m 7.15625,-1.5195312 0.691406,0.089844 Q 31.058594,9.2851563 30.589844,9.6914063 30.125,10.09375 29.445312,10.09375 q -0.851562,0 -1.371093,-0.5546875 -0.515625,-0.5585937 -0.515625,-1.5976563 0,-0.671875 0.222656,-1.1757812 0.222656,-0.5039063 0.675781,-0.7539063 0.457031,-0.2539062 0.992188,-0.2539062 0.675781,0 1.105468,0.34375 0.429688,0.3398437 0.550782,0.96875 L 30.421875,7.1757812 Q 30.324219,6.7578125 30.074219,6.546875 29.828125,6.3359375 29.476562,6.3359375 q -0.53125,0 -0.863281,0.3828125 -0.332031,0.3789062 -0.332031,1.203125 0,0.8359375 0.320312,1.2148438 0.320313,0.3789062 0.835938,0.3789062 0.414062,0 0.691406,-0.2539062 0.277344,-0.2539063 0.351563,-0.78125 z m 4.132812,0.1835937 0.726563,0.089844 q -0.171875,0.6367187 -0.636719,0.9882812 -0.464844,0.3515625 -1.1875,0.3515625 -0.910156,0 -1.445313,-0.5585937 -0.53125,-0.5625 -0.53125,-1.5742188 0,-1.046875 0.539063,-1.625 0.539062,-0.578125 1.398437,-0.578125 0.832032,0 1.359375,0.5664062 0.527344,0.5664063 0.527344,1.59375 0,0.0625 -0.0039,0.1875001 h -3.09375 q 0.03906,0.6835937 0.386719,1.046875 Q 33,9.515625 33.519531,9.515625 q 0.386719,0 0.660156,-0.203125 0.273438,-0.203125 0.433594,-0.6484375 z M 32.304687,7.5273437 h 2.316407 q -0.04687,-0.5234375 -0.265625,-0.7851562 -0.335938,-0.40625 -0.871094,-0.40625 -0.484375,0 -0.816406,0.3242187 -0.328125,0.3242188 -0.363282,0.8671875 z M 38.914062,10 V 9.4765625 q -0.394531,0.6171875 -1.160156,0.6171875 -0.496094,0 -0.914062,-0.2734375 Q 36.425781,9.546875 36.195312,9.0585938 35.96875,8.5664063 35.96875,7.9296875 q 0,-0.6210938 0.207031,-1.125 0.207031,-0.5078125 0.621094,-0.7773438 0.414062,-0.2695312 0.925781,-0.2695312 0.375,0 0.667969,0.1601562 0.292969,0.15625 0.476562,0.4101563 V 4.2734375 h 0.699219 V 10 Z M 36.691406,7.9296875 q 0,0.796875 0.335938,1.1914063 0.335937,0.3945312 0.792968,0.3945312 0.460938,0 0.78125,-0.375 0.324219,-0.3789062 0.324219,-1.1523438 0,-0.8515625 -0.328125,-1.25 -0.328125,-0.3984375 -0.808594,-0.3984375 -0.46875,0 -0.785156,0.3828125 -0.3125,0.3828125 -0.3125,1.2070313 z M 43.660156,10 42.390625,5.8515625 h 0.726562 l 0.660157,2.3945313 0.246093,0.890625 q 0.01563,-0.066406 0.214844,-0.8554688 l 0.660156,-2.4296875 h 0.722657 l 0.621093,2.40625 0.207032,0.7929688 L 46.6875,8.25 47.398437,5.8515625 h 0.683594 L 46.785156,10 H 46.054687 L 45.394531,7.515625 45.234375,6.8085937 44.394531,10 Z M 48.675781,5.0820312 V 4.2734375 h 0.703125 v 0.8085937 z m 0,4.9179688 V 5.8515625 h 0.703125 V 10 Z m 3.308594,-0.6289062 0.101562,0.6210937 q -0.296875,0.062501 -0.53125,0.062501 -0.382812,0 -0.59375,-0.1210942 Q 50.75,9.8125 50.664062,9.6171875 50.578125,9.4179688 50.578125,8.7851563 V 6.3984375 H 50.0625 v -0.546875 h 0.515625 V 4.8242187 l 0.699219,-0.421875 v 1.4492188 h 0.707031 v 0.546875 h -0.707031 v 2.4257813 q 0,0.3007812 0.03516,0.3867187 0.03906,0.085937 0.121094,0.1367188 0.08594,0.050781 0.242187,0.050781 0.117188,0 0.308594,-0.027344 z M 52.671875,10 V 4.2734375 H 53.375 V 6.328125 q 0.492187,-0.5703125 1.242187,-0.5703125 0.460938,0 0.800782,0.1835937 0.339843,0.1796875 0.484375,0.5 0.148437,0.3203125 0.148437,0.9296875 V 10 H 55.347656 V 7.3710937 q 0,-0.5273437 -0.230469,-0.765625 -0.226562,-0.2421875 -0.644531,-0.2421875 -0.3125,0 -0.589844,0.1640625 Q 53.609375,6.6875 53.492187,6.9648437 53.375,7.2421875 53.375,7.7304687 V 10 Z"
     id="text3"
     class="powered-text"
     style="font-size:8px;font-family:Arial, FreeSans, sans-serif;stroke:#bebebe;stroke-width:2px;paint-order:stroke"
     aria-label="enhanced with" />
  <path
     d="m 6.015625,21.289062 2.2421875,-0.117187 q 0.046875,1.070312 0.3671875,1.445312 0.515625,0.609375 1.90625,0.609375 1.15625,0 1.671875,-0.414062 0.515625,-0.414063 0.515625,-1 0,-0.507813 -0.421875,-0.859375 Q 12,20.695312 10.664063,20.117187 9.3359375,19.539062 8.71875,19.15625 8.109375,18.765625 7.7578125,18.148437 7.40625,17.53125 7.40625,16.703125 q 0,-1.445312 1.046875,-2.398437 1.046875,-0.953125 3.03125,-0.953125 2.015625,0 3.117188,0.945312 1.109375,0.945313 1.21875,2.515625 L 13.5625,16.914062 q -0.08594,-0.820312 -0.59375,-1.257812 -0.507812,-0.4375 -1.5,-0.4375 -0.976562,0 -1.398437,0.34375 -0.414063,0.34375 -0.414063,0.867187 0,0.492188 0.382813,0.8125 0.382812,0.328125 1.695312,0.898438 1.976563,0.851562 2.515625,1.382812 0.804688,0.78125 0.804688,2.007813 0,1.515625 -1.203125,2.59375 -1.195313,1.070312 -3.335938,1.070312 -1.4765625,0 -2.5625,-0.492187 Q 6.875,24.203125 6.4296875,23.320312 5.984375,22.4375 6.015625,21.289062 Z"
     id="text4"
     class="smil-text"
     style="font-style:italic;font-weight:bold;font-size:16px;font-family:Arial, FreeSans, sans-serif;stroke:#000000;stroke-width:2;paint-order:stroke"
     aria-label="S ">
        <animate
            attributeName="fill" values="#f45;#ff2;#0f0;#0ff;#99f;#f5f;#f33"
            dur="2s" repeatCount="indefinite" />
  </path>
  <path
     d="M 23.242187,25 H 21.007812 L 20.59375,15.429688 18.773437,25 h -2.125 l 2.390625,-11.453125 h 3.359375 L 22.75,21.570312 26.65625,13.546875 h 3.398437 L 27.65625,25 h -2.148438 l 2.257813,-9.5 z"
     id="text5"
     class="smil-text"
     style="font-style:italic;font-weight:bold;font-size:16px;font-family:Arial, FreeSans, sans-serif;stroke:#000000;stroke-width:2;paint-order:stroke"
     aria-label="M ">
        <animate
            attributeName="fill" values="#f45;#ff2;#0f0;#0ff;#99f;#f5f;#f33"
            begin="-1.8s" dur="2s" repeatCount="indefinite" />
  </path>
  <path
     d="m 30.554687,25 2.398438,-11.453125 h 2.351562 L 32.914062,25 Z"
     id="text6"
     class="smil-text"
     style="font-style:italic;font-weight:bold;font-size:16px;font-family:Arial, FreeSans, sans-serif;stroke:#000000;stroke-width:2;paint-order:stroke"
     aria-label="I ">
        <animate
            attributeName="fill" values="#f45;#ff2;#0f0;#0ff;#99f;#f5f;#f33"
            begin="-1.6s" dur="2s" repeatCount="indefinite" />
  </path>
  <path
     d="m 35.71875,25 2.398437,-11.453125 h 2.351563 l -1.992188,9.539062 h 5.828125 L 43.90625,25 Z"
     id="text7"
     class="smil-text"
     style="font-style:italic;font-weight:bold;font-size:16px;font-family:Arial, FreeSans, sans-serif;stroke:#000000;stroke-width:2;paint-order:stroke"
     aria-label="L ">
        <animate
            attributeName="fill" values="#f45;#ff2;#0f0;#0ff;#99f;#f5f;#f33"
            begin="-1.4s" dur="2s" repeatCount="indefinite" />
  </path>
  <path
     d="M 48.765625,22.085937 H 47.53125 l 0.703125,-5.84375 0.5625,-2.695312 h 2.351562 l -0.601562,2.898437 z m -1.828125,0.75 h 2.21875 L 48.703125,25 h -2.21875 z"
     id="text8"
     class="smil-text"
     style="font-style:italic;font-weight:bold;font-size:16px;font-family:Arial, FreeSans, sans-serif;stroke:#000000;stroke-width:2;paint-order:stroke"
     aria-label="! ">
        <animate
            attributeName="fill" values="#f45;#ff2;#0f0;#0ff;#99f;#f5f;#f33"
            begin="-1.4s" dur="2s" repeatCount="indefinite" />
  </path>
  <path
     d="m 57.859375,15.103125 h 2.210937 L 59.617187,17.275 H 57.40625 Z m -1.28125,6.132812 h 2.21875 L 58.34375,23.4 H 56.125 Z"
     id="text9"
     class="smil-text"
     style="font-style:italic;font-weight:bold;font-size:16px;font-family:Arial, FreeSans, sans-serif;stroke:#000000;stroke-width:2;paint-order:stroke"
     aria-label=": ">
        <animate
            attributeName="fill" values="#f45;#ff2;#0f0;#0ff;#99f;#f5f;#f33"
            begin="-1.2s" dur="2s" repeatCount="indefinite" />
  </path>
  <path
     d="M 60.695312,25 63.09375,13.546875 h 3.085937 q 1.289063,0 1.648438,0.03906 0.710937,0.07031 1.265625,0.289062 0.5625,0.21875 1.015625,0.617188 0.460937,0.390625 0.789062,0.945312 0.335938,0.554688 0.515625,1.28125 0.179688,0.71875 0.179688,1.578125 0,1.851562 -0.710938,3.289062 -0.703125,1.429688 -1.773437,2.273438 -0.820313,0.65625 -2.117188,0.96875 Q 66.257812,25 64.734375,25 Z M 63.4375,23.15625 h 1.195312 q 1.296875,0 1.875,-0.15625 0.585938,-0.164063 1.070313,-0.601563 0.695312,-0.632812 1.171875,-1.6875 0.476562,-1.054687 0.476562,-2.484375 0,-1.21875 -0.398437,-1.828125 Q 68.4375,15.78125 67.859375,15.578125 67.453125,15.4375 66.414062,15.4375 h -1.367187 z"
     id="text10"
     class="smil-text"
     style="font-style:italic;font-weight:bold;font-size:16px;font-family:Arial, FreeSans, sans-serif;stroke:#000000;stroke-width:2;paint-order:stroke"
     aria-label="D ">
        <animate
            attributeName="fill" values="#f45;#ff2;#0f0;#0ff;#99f;#f5f;#f33"
            begin="-1s" dur="2s" repeatCount="indefinite" />
  </path>
  <!-- Outset borders -->
  <path
     d="M 0 0 L 88 0 L 86 2 L 2 2 L 2 29 L 0 31 Z"
     fill="white"
     id="path10" />
  <path
     d="M 88 31 L 0 31 L 2 29 L 86 29 L 86 2 L 88 0 Z"
     fill="black"
     id="path11" />
  <metadata
     id="metadata11">
    <rdf:RDF>
      <cc:Work
         rdf:about="">
        <dc:title>Enhanced with SMIL :D</dc:title>
      </cc:Work>
    </rdf:RDF>
  </metadata>
</svg>
